<svg id="icon" xmlns="http://www.w3.org/2000/svg" viewBox="0 0 512 512"><rect x="86.706" y="86.705" width="338.589" height="338.589" rx="25.459" transform="translate(-106.038 256) rotate(-45)" style="fill:#ffb14a"/><rect x="125.133" y="125.132" width="261.735" height="261.735" rx="17.684" transform="translate(-106.038 256) rotate(-45)" style="fill:#fff"/><path d="M241.81,135.876,189.055,301.562H322.946L270.19,135.876C265.786,122.044,246.214,122.044,241.81,135.876Z" style="fill:#ffb14a"/><path d="M338.353,331.016H173.647V316.97a15.407,15.407,0,0,1,15.408-15.408H322.946a15.407,15.407,0,0,1,15.407,15.408Z" style="fill:#53737f"/><polygon points="219.553 205.78 286.799 188.039 277.303 158.216 230.79 170.487 219.553 205.78" style="fill:#53737f"/><polygon points="194.746 283.688 307.761 253.873 298.265 224.05 205.983 248.396 194.746 283.688" style="fill:#53737f"/><path d="M481.532,233.882,278.118,30.466a31.318,31.318,0,0,0-44.235,0L30.469,233.882a31.312,31.312,0,0,0,0,44.235L233.883,481.531a31.314,31.314,0,0,0,44.235,0L481.534,278.117A31.317,31.317,0,0,0,481.532,233.882Zm-8.23,36L269.887,473.3a19.64,19.64,0,0,1-27.774,0L38.7,269.887c-7.608-7.312-7.626-20.463,0-27.775L242.113,38.7a19.662,19.662,0,0,1,27.774,0L473.3,242.112A19.666,19.666,0,0,1,473.3,269.887Z" style="fill:#333"/><path d="M412.167,218.863c-5.579-5.321-13.512,2.743-8.23,8.23l20.518,20.517a11.867,11.867,0,0,1,0,16.779L264.39,424.454a11.867,11.867,0,0,1-16.779,0L87.546,264.389a11.925,11.925,0,0,1,0-16.779L247.611,87.545a11.865,11.865,0,0,1,16.779,0l96.574,96.574a5.819,5.819,0,1,0,8.23-8.23L272.62,79.315a23.5,23.5,0,0,0-33.239,0L79.315,239.38c-9.107,8.748-9.125,24.491,0,33.239L239.381,432.684a23.5,23.5,0,0,0,33.239,0L432.685,272.619c9.111-8.749,9.124-24.49,0-33.239Z" style="fill:#333"/><path d="M383.667,206.821c6.368,5.638,14.027-3.785,7.36-9.1C384.659,192.084,377,201.507,383.667,206.821Z" style="fill:#333"/><path d="M313.309,252.111l-9.5-29.83c-5.2-16.209-15.663-49.291-20.808-65.348l-7.267-22.823a20.712,20.712,0,0,0-39.471,0l-11.017,34.6c-6.6,20.721-33.51,105.25-40.6,127.5a21.262,21.262,0,0,0-16.824,20.762v14.046a5.82,5.82,0,0,0,5.82,5.82H338.354a5.82,5.82,0,0,0,5.82-5.82V316.97a21.262,21.262,0,0,0-16.824-20.762ZM247.357,137.642a9.05,9.05,0,0,1,17.287,0l5.256,16.507-30.348,8.006ZM235.367,175.3l38.07-10.043,5.959,18.715-51.082,13.478Zm-11.238,35.292,58.8-15.514,7.93,24.906-76.118,20.083ZM210.56,253.207,294.4,231.089l5.96,18.717-76.643,20.221a5.82,5.82,0,1,0,2.97,11.254l77.209-20.37,11.09,34.831H197.016ZM332.533,316.97V325.2H179.468V316.97a9.6,9.6,0,0,1,9.587-9.587h133.9A9.6,9.6,0,0,1,332.533,316.97Z" style="fill:#333"/></svg>